<svg xmlns="http://www.w3.org/2000/svg" id="Calque_1" data-name="Calque 1" viewBox="0 0 110.2 53.3"><defs><style></style></defs><path d="M0 39.3v13.4h19.6V46H7.4v-8.4L0 39.3zM46.9 52.7h7V27.5l-7 1.6v23.6zM38.5 39l-1.3-7.8-5.8 1.2 3.3 20.3h7.1l3.5-23.3-5.5 1.2-1.3 8.4zM22.8 52.7h6.4V32.9l-6.4 1.4v18.4zM76.1 33.8l-2.8-10.5-5.8 1.3 7.6 28.1h7.6V21.3l-6.6 1.4v11.1zM59.2 52.7h6.7V24.9l-6.7 1.5v26.3zM102.8 16.9v2.9c0 3.7-1.8 5-4.2 5s-4.1-1.3-4.1-5v-1.1L87 20.3c.4 3.6 1.9 6.1 4.5 7.6-3.2 1.8-4.6 5.3-4.6 9.8v3.7c0 7.5 4.2 11.8 11.6 11.8s11.6-4.3 11.6-11.8v-3.7c0-4.5-1.3-8-4.6-9.8 3-1.7 4.6-4.9 4.6-9.5v-3.1l-7.4 1.6Zm0 24.3c0 4.2-1.8 5.3-4.2 5.3s-4.1-1.1-4.1-5.3v-4.4c0-3.7 1.5-5.3 4.1-5.3s4.2 1.6 4.2 5.3v4.4ZM0 .5v33.7l7.4-1.6V.5H0zM33.1.5H22.8v28.8l6.4-1.4V14.3l2.2 13.1 5.8-1.3L33.1.5zM43.6.5l-3.8 25.1 5.5-1.2 1.6-10.5V24l7-1.5V.5H43.6zM76.1.5v17.2l6.6-1.5V.5h-6.6zM68.5.5h-9.3v20.8l6.7-1.4v-6.4l1.6 6 5.8-1.2L68.5.5zM94.5 12.1c0-4.2 1.8-5.4 4.1-5.4s4.1 1.1 4.2 5.1l7.4-1.6C109.6 3.7 105.6 0 98.6 0c-7.4 0-11.5 4.3-11.5 11.8v3.5l7.4-1.7v-1.5Z" class="cls-1"/></svg>