<svg width="128" height="62" viewBox="0 0 128 62" fill="none" xmlns="http://www.w3.org/2000/svg">
<path d="M0 45.6479V61.2123H22.7659V53.4301H8.59528V43.6733L0 45.6479ZM54.4755 61.2123H62.6062V31.9419L54.4755 33.8004V61.2123ZM44.7187 45.2995L43.2087 36.2396L36.4719 37.6334L40.3049 61.2123H48.5517L52.6171 34.1488L46.2287 35.5427L44.7187 45.2995ZM26.4828 61.2123H33.9165V38.2142L26.4828 39.8403V61.2123ZM88.392 39.2595L85.1398 27.0635L78.4029 28.5735L87.2305 61.2123H96.0581V24.7405L88.392 26.3666V39.2595ZM68.7623 61.2123H76.5445V28.922L68.7623 30.6642V61.2123ZM119.405 19.6298V22.9982C119.405 27.2958 117.314 28.8058 114.526 28.8058C111.739 28.8058 109.764 27.2958 109.764 22.9982V21.7205L101.053 23.5789C101.517 27.7604 103.26 30.6642 106.279 32.4065C102.563 34.4973 100.936 38.5626 100.936 43.7895V48.0871C100.936 56.7986 105.815 61.7931 114.41 61.7931C123.005 61.7931 127.884 56.7986 127.884 48.0871V43.7895C127.884 38.5626 126.374 34.4973 122.541 32.4065C126.025 30.4319 127.884 26.7151 127.884 21.3721V17.7713L119.289 19.6298H119.405ZM119.405 47.8548C119.405 52.7332 117.314 54.0109 114.526 54.0109C111.739 54.0109 109.764 52.7332 109.764 47.8548V42.7441C109.764 38.4465 111.506 36.588 114.526 36.588C117.546 36.588 119.405 38.4465 119.405 42.7441V47.8548ZM0 0.580762V39.7241L8.59528 37.8657V0.580762H0ZM38.4465 0.580762H26.4828V34.0327L33.9165 32.4065V16.6098L36.4719 31.8258L43.2087 30.3158L38.4465 0.580762ZM50.6425 0.580762L46.2287 29.735L52.6171 28.3412L54.4755 16.1452V27.8766L62.6062 26.1343V0.580762H50.6425ZM88.392 0.580762V20.559L96.0581 18.8167V0.580762H88.392ZM79.5644 0.580762H68.7623V24.7405L76.5445 23.1143V15.6806L78.4029 22.6497L85.1398 21.2559L79.5644 0.580762ZM109.764 14.0544C109.764 9.17604 111.855 7.78221 114.526 7.78221C117.198 7.78221 119.289 9.05989 119.405 13.706L128 11.8476C127.303 4.29764 122.657 0 114.526 0C105.931 0 101.169 4.99456 101.169 13.706V17.7713L109.764 15.7967V14.0544Z" fill="white"/>
</svg>
